<svg width="280" height="280" viewBox="0 0 280 280" fill="none" xmlns="http://www.w3.org/2000/svg">
<rect width="280" height="280" fill="#202020"/>
<path d="M111.96 178.58V176.38H109.28V169.3H106.64V187.72H109.28V178.58H111.96ZM101.64 173.4V170.72H98.98V173.4C98.98 176.82 97.58 180.36 94.48 181.8L96.06 183.94C98.14 182.92 99.52 180.98 100.32 178.64C101.1 180.9 102.38 182.62 104.3 183.6L105.9 181.52C102.94 180.08 101.64 176.72 101.64 173.4ZM127.558 182.62V169.3H124.898V182.62H127.558ZM122.398 180.34L123.738 178.32C120.778 177.36 119.418 175.06 119.418 172.92V172.7H123.058V170.62H113.038V172.7H116.738V172.92C116.738 175.22 115.378 177.64 112.338 178.6L113.678 180.66C115.838 179.96 117.298 178.58 118.118 176.74C118.978 178.42 120.318 179.7 122.398 180.34ZM128.018 185.3H117.938V181.42H115.298V187.4H128.018V185.3ZM149.828 176.78H142.788V175.7C146.388 175.48 148.188 174.44 148.188 172.6C148.188 170.58 145.888 169.46 141.508 169.46C137.168 169.46 134.848 170.58 134.848 172.6C134.848 174.42 136.608 175.46 140.148 175.7V176.78H133.188V178.84H149.828V176.78ZM137.588 172.6C137.588 171.78 138.848 171.4 141.508 171.4C144.248 171.4 145.448 171.78 145.448 172.6C145.448 173.46 144.248 173.82 141.508 173.82C138.848 173.82 137.588 173.46 137.588 172.6ZM137.728 185.6V184.56H147.808V179.82H135.088V181.78H145.208V182.74H135.108V187.58H148.288V185.6H137.728ZM165.907 169.28H163.267V187.76H165.907V169.28ZM154.267 181.3V177.98H160.247V170.86H151.547V172.96H157.547V175.9H151.567V183.48H153.227C156.587 183.48 159.227 183.38 162.267 182.84L161.987 180.7C159.407 181.12 157.067 181.3 154.267 181.3ZM183.325 169.28H180.665V187.7H183.325V169.28ZM177.845 171.2H169.005V173.3H175.145C174.765 177.38 172.725 180.28 168.025 182.52L169.405 184.6C175.945 181.46 177.845 176.82 177.845 171.2Z" fill="#666666"/>
<rect x="110" y="114" width="60" height="6" fill="#666666"/>
<rect x="110" y="114" width="60" height="6" fill="#666666"/>
<rect x="110" y="114" width="60" height="6" fill="#666666"/>
<rect x="143" y="87" width="60" height="6" transform="rotate(90 143 87)" fill="#666666"/>
<rect x="143" y="87" width="60" height="6" transform="rotate(90 143 87)" fill="#666666"/>
<rect x="143" y="87" width="60" height="6" transform="rotate(90 143 87)" fill="#666666"/>
</svg>
